<?xml version="1.0" encoding="utf-8"?>
<!-- Svg Vector Icons : http://www.onlinewebfonts.com/icon -->
<!DOCTYPE svg PUBLIC "-//W3C//DTD SVG 1.1//EN" "http://www.w3.org/Graphics/SVG/1.1/DTD/svg11.dtd">
<svg version="1.1" xmlns="http://www.w3.org/2000/svg" xmlns:xlink="http://www.w3.org/1999/xlink" x="0px" y="0px" viewBox="0 0 256 256" enable-background="new 0 0 256 256" xml:space="preserve">
<metadata> Svg Vector Icons : http://www.onlinewebfonts.com/icon </metadata>
<g><g><path fill="#000000" d="M223.6,53.1c-14-16.3-33.3-28.4-55.8-35.2c-4.6-1.4-9.6,0.9-11.4,5.4c-4.6,11.1-15.7,18.3-28.1,18.3c-12.5,0-23.6-7.2-28.2-18.5c-1.8-4.5-6.7-6.8-11.4-5.5c-22.6,6.7-42,18.8-56.2,35.2C17.8,69.8,10,89.9,10,111.1c0,5.2,4.2,9.3,9.4,9.3h25.7v99.8c0,10.4,8.5,18.6,18.9,18.6h128.7c10.4,0,18.9-8.2,18.9-18.6v-99.7h25c5.2,0,9.4-4.1,9.4-9.3C246,90,238.3,70.1,223.6,53.1z M211.6,101.8V97c0-5.2-4.2-9.4-9.4-9.4c-5.2,0-9.4,4.2-9.4,9.4v12.5c0,0.6-0.2,1.1-0.2,1.7s0.2,1.2,0.2,1.7v107.2l0-0.3H64.1v0.3V97c0-5.2-4.2-9.4-9.4-9.4s-9.4,4.2-9.4,9.4v4.8H29.6c4.1-27.8,25.9-52,57.3-63.7c3.5,5.4,8.2,10.2,13.7,13.9c8.2,5.5,17.8,8.4,27.8,8.4c9.9,0,19.5-2.9,27.7-8.4c5.5-3.7,10.1-8.4,13.7-13.7c31.2,11.8,52.7,36,56.8,63.5L211.6,101.8L211.6,101.8z"/></g></g>
</svg>