<?xml version="1.0" encoding="iso-8859-1"?>
<!-- Uploaded to: SVG Repo, www.svgrepo.com, Generator: SVG Repo Mixer Tools -->
<!DOCTYPE svg PUBLIC "-//W3C//DTD SVG 1.1//EN" "http://www.w3.org/Graphics/SVG/1.1/DTD/svg11.dtd">
<svg fill="#000000" height="800px" width="800px" version="1.1" id="Capa_1" xmlns="http://www.w3.org/2000/svg" xmlns:xlink="http://www.w3.org/1999/xlink" 
	 viewBox="0 0 396.732 396.732" xml:space="preserve">
<g>
	<path d="M205.866,111.561V57.342c0-17.877-14.545-32.422-32.422-32.422c-9.606,0-17.422-7.815-17.422-17.42
		c0-4.143-3.358-7.5-7.5-7.5c-4.143,0-7.5,3.357-7.5,7.5c0,17.876,14.544,32.42,32.422,32.42c9.607,0,17.422,7.815,17.422,17.422
		v54.219c-43.496,4.139-77.731,43.918-77.731,92.225v125.574c0,37.149,38.234,67.373,85.231,67.373s85.231-30.224,85.231-67.373
		V203.785C283.597,155.479,249.362,115.699,205.866,111.561z M267.154,188.102h-49.787V168.65c0-7.814-4.744-14.536-11.501-17.451
		v-24.555C236.346,130.236,261.063,155.453,267.154,188.102z M194.365,168.65c0-2.206,1.795-4,4.001-4c2.206,0,4.001,1.794,4.001,4
		v36.74c0,2.207-1.795,4.002-4.001,4.002c-2.206,0-4.001-1.795-4.001-4.002V168.65z M190.866,126.645v24.555
		c-6.757,2.915-11.501,9.638-11.501,17.451v19.451h-49.786C135.669,155.453,160.385,130.236,190.866,126.645z M268.597,329.359
		c0,28.879-31.506,52.373-70.231,52.373s-70.231-23.494-70.231-52.373c0,0,0.014-126.029,0.016-126.258h51.214v2.289
		c0,10.478,8.523,19.002,19.001,19.002c10.477,0,19.001-8.524,19.001-19.002v-2.289h51.215
		C268.584,203.33,268.597,329.359,268.597,329.359z"/>
</g>
</svg>